{"title":"The.Borgias.S02E10.HDTV.XviD-Atilla82","uid":7363685,"size":430913225,"categoryP":"video","categoryS":"tv_shows","magnet":"?xt=urn:btih:1dd85cb6c4b41ec5b59378843db6f6b0167e9822&amp;dn=The.Borgias.S02E10.HDTV.XviD-Atilla82&amp;tr=udp%3A%2F%2Ftracker.openbittorrent.com%3A80&amp;tr=udp%3A%2F%2Fopen.demonii.com%3A1337&amp;tr=udp%3A%2F%2Ftracker.coppersurfer.tk%3A6969&amp;tr=udp%3A%2F%2Fexodus.desync.com%3A6969","seeders":1,"leechers":0,"uploader":"Atilla82","files":3,"time":1340037959,"description":"The Borgias S02E10 HDTV XviD Atilla82\n\n\nThe Borgias (2011)\n\nThe saga of a crime family in 1492 Italy.\n &lt;a href=&quot;\nhttp://www.imdb.com/title/tt1582457/&quot; rel=&quot;nofollow&quot; target=&quot;_NEW&quot;&gt;\nhttp://www.imdb.com/title/tt1582457/&lt;/a&gt; [rate:7.9/10] 9,628 votes\n \n\n\n\nlanguage: English\n\n\nGeneral\nComplete name : The.Borgias.S02E10.HDTV.XviD-Atilla82.avi\nFormat : AVI\nFormat/Info : Audio Video Interleave\nFile size : 411 MiB\nDuration : 57mn 44s\nOverall bit rate : 995 Kbps\nWriting application : VirtualDubMod 1.5.10.2 (build 2540/release)\nWriting library : VirtualDubMod build 2540/release\n\nVideo\nID : 0\nFormat : MPEG-4 Visual\nFormat profile : Advanced Simple@L5\nFormat settings, BVOP : No\nFormat settings, QPel : Yes\nFormat settings, GMC : No warppoints\nFormat settings, Matrix : Default (H.263)\nCodec ID : XVID\nCodec ID/Hint : XviD\nDuration : 57mn 44s\nBit rate : 761 Kbps\nWidth : 680 pixels\nHeight : 380 pixels\nDisplay aspect ratio : 16:9\nFrame rate : 23.976 fps\nColor space : YUV\nChroma subsampling : 4:2:0\nBit depth : 8 bits\nScan type : Progressive\nCompression mode : Lossy\nBits/(Pixel*Frame) : 0.123\nStream size : 314 MiB (77%)\nWriting library : XviD 64\n\nAudio\nID : 1\nFormat : AC-3\nFormat/Info : Audio Coding 3\nMode extension : CM (complete main)\nFormat settings, Endianness : Big\nCodec ID : 2000\nDuration : 57mn 44s\nBit rate mode : Constant\nBit rate : 224 Kbps\nChannel(s) : 2 channels\nChannel positions : Front: L R\nSampling rate : 48.0 KHz\nBit depth : 16 bits\nCompression mode : Lossy\nStream size : 92.5 MiB (23%)\nAlignment : Split accross interleaves\nInterleave, duration : 42 ms (1.00 video frame)\nInterleave, preload duration : 500 ms\n\n\n\n\nSCREENSHOTS &lt;a href=&quot;\nhttp://www.pohrani.com/f/M/N3/2X7vjuaE/theborgiass02e10hdtvxvid.jpg&quot; rel=&quot;nofollow&quot; target=&quot;_NEW&quot;&gt;\nhttp://www.pohrani.com/f/M/N3/2X7vjuaE/theborgiass02e10hdtvxvid.jpg&lt;/a&gt;\n\n\n","torrent":{"xt":"urn:btih:1dd85cb6c4b41ec5b59378843db6f6b0167e9822","amp;dn":"The.Borgias.S02E10.HDTV.XviD-Atilla82","amp;tr":["udp%3A%2F%2Ftracker.openbittorrent.com%3A80","udp%3A%2F%2Fopen.demonii.com%3A1337","udp%3A%2F%2Ftracker.coppersurfer.tk%3A6969","udp%3A%2F%2Fexodus.desync.com%3A6969"],"infoHash":"1dd85cb6c4b41ec5b59378843db6f6b0167e9822","infoHashBuffer":{"type":"Buffer","data":[29,216,92,182,196,180,30,197,181,147,120,132,61,182,246,176,22,126,152,34]},"announce":[],"urlList":[]}}